<?xml version="1.0" standalone="no"?>
<!DOCTYPE svg PUBLIC "-//W3C//DTD SVG 20010904//EN"
 "http://www.w3.org/TR/2001/REC-SVG-20010904/DTD/svg10.dtd">
<svg version="1.0" xmlns="http://www.w3.org/2000/svg"
 width="700.000000pt" height="700.000000pt" viewBox="0 0 700.000000 700.000000"
 preserveAspectRatio="xMidYMid meet">
<metadata>
Created by potrace 1.11, written by Peter Selinger 2001-2013
</metadata>
<g transform="translate(0.000000,700.000000) scale(0.100000,-0.100000)"
fill="#000000" stroke="none">
<path d="M3280 6904 c-19 -2 -84 -9 -144 -14 -1191 -115 -2276 -910 -2759
-2020 -264 -607 -348 -1271 -242 -1920 207 -1264 1111 -2312 2330 -2700 342
-109 651 -155 1035 -155 256 0 358 8 580 45 1300 219 2381 1208 2715 2485 81
307 110 539 110 875 0 328 -26 541 -101 842 -191 758 -646 1433 -1284 1905
-478 353 -1028 569 -1640 643 -88 11 -538 21 -600 14z m-737 -1747 c257 -447
481 -835 498 -863 l29 -51 -56 -37 c-77 -52 -176 -153 -230 -236 -77 -120
-122 -250 -139 -407 l-7 -63 -996 0 -995 0 6 143 c38 836 453 1621 1129 2134
88 66 276 192 288 192 3 0 216 -365 473 -812z m2470 762 c563 -352 991 -901
1196 -1532 82 -251 126 -494 138 -744 l6 -143 -995 0 -996 0 -7 63 c-17 157
-62 287 -139 407 -54 83 -153 184 -230 236 l-56 37 29 51 c17 28 241 416 498
863 257 447 469 812 471 813 1 0 39 -23 85 -51z m-1350 -1873 c175 -55 307
-183 375 -364 33 -88 37 -256 8 -342 -64 -190 -196 -322 -386 -386 -86 -29
-254 -25 -342 8 -156 59 -260 152 -329 294 -106 218 -62 474 110 644 69 69
170 128 251 148 25 6 54 14 65 16 37 9 199 -3 248 -18z m-527 -1320 c75 -36
175 -64 275 -77 143 -18 314 11 456 78 46 22 56 24 67 12 17 -18 986 -1698
986 -1709 0 -12 -266 -141 -390 -188 -319 -123 -600 -179 -946 -189 -404 -12
-755 49 -1129 194 -114 44 -375 172 -375 183 0 8 934 1631 976 1698 18 27 19
27 80 -2z"/>
</g>
</svg>
